<svg id="KTH_Logotyp" data-name="KTH Logotyp" xmlns="http://www.w3.org/2000/svg" viewBox="0 0 284.5 284.5"><defs><style>.cls-1{fill:#0063af;}.cls-2{fill:#fff;}</style></defs><title>cpart-logo-kth</title><rect class="cls-1" width="284.5" height="284.54"/><path class="cls-2" d="M422,414c2.5-2.8,5.1-5.8,7-7.6a11.3,11.3,0,0,1,7.5-3.6s-4.3-2.1-8.9,2.4c-1.2,1.2-4,4.3-6.8,7.5l-3-3.3,2.8-3a11.3,11.3,0,0,1,7.5-3.6s-4.3-2.1-8.9,2.4l-2.6,2.8-2.6-2.8c-4.6-4.6-8.9-2.4-8.9-2.4a11.3,11.3,0,0,1,7.5,3.6l2.8,3-3,3.3c-2.8-3.2-5.6-6.2-6.8-7.5-4.6-4.6-8.9-2.4-8.9-2.4a11.3,11.3,0,0,1,7.5,3.6c1.8,1.8,4.5,4.8,7,7.6-2.3,2.6-4.6,5.1-5.8,6.4a11.3,11.3,0,0,1-6.6,3.3s3.8,2.2,9-3.1l4.6-5.2,2.9,3.3-1.6,1.7a11.3,11.3,0,0,1-6.6,3.3s3.8,2.2,9-3.1l0.5-.5,0.5,0.5c5.2,5.3,9,3.1,9,3.1a11.3,11.3,0,0,1-6.6-3.3l-1.6-1.7,2.9-3.3,4.6,5.2c5.2,5.3,9,3.1,9,3.1a11.3,11.3,0,0,1-6.6-3.3C426.6,419.1,424.4,416.6,422,414Zm-5.4,3.3-3-3.3,3-3.3,3,3.3Z" transform="translate(-274.4 -155.3)"/><path class="cls-2" d="M320.9,256.6a4.3,4.3,0,0,0,4.3,2.9l1.8-.3,0.3,0.4a4.7,4.7,0,0,0,1.1,1.1h0.4a0.8,0.8,0,0,0,.4-1.4l-0.7-.7v-0.2a5.1,5.1,0,0,0,1.9-1.9,4,4,0,0,0,.3-3.1,1.8,1.8,0,0,0-1.6-1.3h-0.2l-0.2-.8c-0.7-2.4-2.9-4.3-4.5-4.2a0.9,0.9,0,0,0-1.5.5,2.8,2.8,0,0,0-1,1.2,6.7,6.7,0,0,0-.3,4.8l0.3,0.7h-0.1A1.8,1.8,0,0,0,320.9,256.6Zm8.3-2.2a2.5,2.5,0,0,1-.3,1.5,3.9,3.9,0,0,1-2.4,1.8l-1.4.2a2.8,2.8,0,0,1-2.7-1.5l1.3,0.2a7.8,7.8,0,0,0,2.3-.4A7,7,0,0,0,329.2,254.4Zm-6.3-4.7a1.1,1.1,0,0,1,.5-0.6l0.3-.2h0.4c0.6-.2,2.4,1.1,3,3.1a5.7,5.7,0,0,1,.3,1.9,6.1,6.1,0,0,1-1.8.9l-1.8.3h-0.2a5.6,5.6,0,0,1-.9-1.7A5.2,5.2,0,0,1,323,249.7Z" transform="translate(-274.4 -155.3)"/><path class="cls-2" d="M338.7,269.4a1.8,1.8,0,0,0,1.7-1.1,0.7,0.7,0,0,0,0-.1h0.8a6.7,6.7,0,0,0,4.5-1.8,2.8,2.8,0,0,0,.8-1.4,0.9,0.9,0,0,0,.5-0.8,0.9,0.9,0,0,0-.5-0.8c-0.4-1.6-2.9-3-5.4-3h-0.8v-0.2a1.8,1.8,0,0,0-1.8-1h0a4,4,0,0,0-3.2,1.6,5.2,5.2,0,0,0-.9,2h-0.2l-0.9-.5a0.8,0.8,0,0,0-.9,1.2l1.4,0.7h0.5c0.1,2.9,1.9,5,4.3,5h0.1Zm2.4-7.5c2-.1,3.8,1.2,3.9,1.8a0.9,0.9,0,0,1,0,.8,1.1,1.1,0,0,1-.4.7,5.2,5.2,0,0,1-3.4,1.4,5.7,5.7,0,0,1-1.9-.3,6.1,6.1,0,0,1-.4-2,6.2,6.2,0,0,1,.3-2A5.6,5.6,0,0,1,341.1,261.9Zm-5.3,2.5a4.1,4.1,0,0,1,.8-2.6,2.5,2.5,0,0,1,1.6-1,7.1,7.1,0,0,0-.8,3.5,6.9,6.9,0,0,0,1,3.5C336.9,267.6,335.9,266.2,335.8,264.3Z" transform="translate(-274.4 -155.3)"/><path class="cls-2" d="M330.4,306.7a2.8,2.8,0,0,0,0-1.6,0.9,0.9,0,0,0,0-.9,0.9,0.9,0,0,0-.8-0.4c-1.1-1.2-4-1.2-6.2.1l-0.6.4h-0.1a1.7,1.7,0,0,0-1-.3,2,2,0,0,0-1,.3,4,4,0,0,0-1.9,3,5.2,5.2,0,0,0,.2,2.2h-1.2a0.8,0.8,0,1,0-.2,1.5h2a5.1,5.1,0,0,0,4.3,2.7,3.9,3.9,0,0,0,2.1-.6,1.8,1.8,0,0,0,.9-1.8h-0.1l0.7-.4A6.7,6.7,0,0,0,330.4,306.7Zm-6.2-1.5c1.8-1.1,3.9-.8,4.3-0.3l0.3,0.3a0.8,0.8,0,0,0,.1.4,1.1,1.1,0,0,1,0,.8,5.2,5.2,0,0,1-2.3,2.9,5.7,5.7,0,0,1-1.8.7,6.1,6.1,0,0,1-1.3-1.6,6.2,6.2,0,0,1-.8-1.9A5.7,5.7,0,0,1,324.2,305.2Zm-3.4,4.8a4.1,4.1,0,0,1-.6-2.6,2.5,2.5,0,0,1,.9-1.6,7.1,7.1,0,0,0,1.1,3.5,7,7,0,0,0,2.6,2.5C323.4,312.3,321.8,311.5,320.8,310Z" transform="translate(-274.4 -155.3)"/><path class="cls-2" d="M303.4,308.3l0.6,0.5h-0.1a1.8,1.8,0,0,0,.5,2,4,4,0,0,0,2.8,1.1h0a5.4,5.4,0,0,0,3.9-1.8l0.4,0.2,1.5,0.4h0.1a0.8,0.8,0,0,0,.1-1.5l-1-.3H312a5.1,5.1,0,0,0,.7-2.6,4,4,0,0,0-1.3-2.8,1.9,1.9,0,0,0-1.3-.6h-0.8l-0.5-.6c-1.8-1.7-4.6-2.3-6-1.4a0.9,0.9,0,0,0-1.1,1.2,2.8,2.8,0,0,0-.3,1.5A6.6,6.6,0,0,0,303.4,308.3Zm7.7-1.9a4.3,4.3,0,0,1-3.9,4.1h0a2.4,2.4,0,0,1-1.4-.4,7.4,7.4,0,0,0,4.8-5.1A2.5,2.5,0,0,1,311.2,306.4Zm-8.1-3.2,0.2-.4,0.3-.2c0.4-.5,2.6-0.2,4.1,1.2a5.7,5.7,0,0,1,1.2,1.6,6.1,6.1,0,0,1-1.1,1.7,6,6,0,0,1-1.7,1.2,5.6,5.6,0,0,1-1.6-1.1,5.2,5.2,0,0,1-1.6-3.3A1.1,1.1,0,0,1,303,303.2Z" transform="translate(-274.4 -155.3)"/><path class="cls-2" d="M337,350a2.8,2.8,0,0,0-.8-1.4,0.9,0.9,0,0,0-.4-0.8,0.9,0.9,0,0,0-1,0c-1.6-.5-4.1.9-5.3,3.1l-0.4.7h-0.4a1.9,1.9,0,0,0-1.6,1,4.4,4.4,0,0,0,1,5.4h-0.1l-0.9.5a0.8,0.8,0,0,0,.3,1.5h0.3l1.3-.8,0.4-.3a5.9,5.9,0,0,0,2.9.8,4.1,4.1,0,0,0,3.7-2,1.8,1.8,0,0,0-.1-2.1h-0.1l0.4-.6A6.6,6.6,0,0,0,337,350Zm-6.1,1.7c1-1.8,3-2.7,3.6-2.3h0.4l0.3,0.3a1.1,1.1,0,0,1,.4.7,5.2,5.2,0,0,1-.6,3.6,5.7,5.7,0,0,1-1.2,1.5,6,6,0,0,1-1.9-.7,6.2,6.2,0,0,1-1.6-1.3A5.7,5.7,0,0,1,330.9,351.7Zm-0.6,5.8c-1.4-.8-2.4-2.4-1.8-3.9a7.5,7.5,0,0,0,6.1,3.5C333.6,358.2,331.8,358.4,330.2,357.5Z" transform="translate(-274.4 -155.3)"/><path class="cls-2" d="M324.2,360.8a0.8,0.8,0,0,0-1-.4l-1,.3H322a5.2,5.2,0,0,0-.4-2.2,4,4,0,0,0-2.7-2.3,1.9,1.9,0,0,0-2,.6h-0.1l-0.7-.2c-2.4-.6-5.1.2-5.9,1.7a0.9,0.9,0,0,0-.4,1.6,2.8,2.8,0,0,0,.4,1.5,6.7,6.7,0,0,0,4,2.8h0.8a0.7,0.7,0,0,0,0,.2,1.8,1.8,0,0,0,1.4,1.5h1c2.1,0,3.8-1.6,4.4-4h0.5l1.5-.4A0.8,0.8,0,0,0,324.2,360.8Zm-12.6-.1a1.1,1.1,0,0,1-.2-0.7,0.8,0.8,0,0,0,0-.4l0.2-.4c0.2-.6,2.2-1.5,4.2-1a5.7,5.7,0,0,1,1.8.8,6.1,6.1,0,0,1-.2,2,6.3,6.3,0,0,1-.8,1.9,5.7,5.7,0,0,1-1.9-.2A5.2,5.2,0,0,1,311.5,360.7Zm8.8,1.1c-0.4,1.7-1.6,2.8-2.9,2.8h-0.3a7.4,7.4,0,0,0,1.7-6.8,2.5,2.5,0,0,1,1.3,1.3A4.1,4.1,0,0,1,320.3,361.8Z" transform="translate(-274.4 -155.3)"/><path class="cls-2" d="M361.6,394.9h0.1c2.9,0,5-1.8,5-4.3a1.8,1.8,0,0,0-1.1-1.8h-0.1a7.6,7.6,0,0,0,.1-0.8,6.7,6.7,0,0,0-1.7-4.5,2.8,2.8,0,0,0-1.3-.8,0.9,0.9,0,0,0-1.6,0c-1.6.3-3.1,2.8-3.2,5.3a7.5,7.5,0,0,0,0,.8h-0.2a1.8,1.8,0,0,0-1.1,1.7,4,4,0,0,0,1.5,3.2,5.2,5.2,0,0,0,2,1v0.2a3.1,3.1,0,0,1-.5.9,0.8,0.8,0,0,0,.1,1.1l0.5,0.2a0.8,0.8,0,0,0,.6-0.3,4.7,4.7,0,0,0,.7-1.3v-0.5Zm-0.3-10.7h0.8a1.1,1.1,0,0,1,.6.4A5.2,5.2,0,0,1,364,388a5.6,5.6,0,0,1-.4,1.9,6.3,6.3,0,0,1-2,.3h0a6.1,6.1,0,0,1-2-.4,5.6,5.6,0,0,1-.3-1.9C359.4,385.9,360.7,384.2,361.3,384.2Zm-3.2,6.7a7.2,7.2,0,0,0,3.6.9,6.9,6.9,0,0,0,3.4-.8c-0.2,1.6-1.9,2.4-3.5,2.4h-0.1a4.1,4.1,0,0,1-2.6-.8A2.5,2.5,0,0,1,358.1,390.9Z" transform="translate(-274.4 -155.3)"/><path class="cls-2" d="M357.1,399.9l-0.7.7h-0.1a4.5,4.5,0,0,0-3.9-2.5h-1.1a1.8,1.8,0,0,0-1.4,1.5v0.2l-0.8.2c-2.4.7-4.4,2.7-4.3,4.4a0.9,0.9,0,0,0,.4,1.5,2.8,2.8,0,0,0,1.1,1.1,6.2,6.2,0,0,0,3,.7l1.8-.2,0.7-.2H352a1.8,1.8,0,0,0,1.4.7H354a4,4,0,0,0,2.4-1.9,5.5,5.5,0,0,0,.4-4.1l0.4-.3a4.7,4.7,0,0,0,1.1-1.1A0.8,0.8,0,1,0,357.1,399.9Zm-6.3,6.3a5.2,5.2,0,0,1-3.6-.3,1.1,1.1,0,0,1-.5-0.5l-0.2-.4a0.8,0.8,0,0,0,0-.4c-0.2-.6,1.2-2.3,3.2-2.9a5.7,5.7,0,0,1,1.9-.2,6.3,6.3,0,0,1,1.1,3.9A5.6,5.6,0,0,1,350.8,406.2Zm4.3-.7a2.4,2.4,0,0,1-1.2,1,7.1,7.1,0,0,0-.1-3.6,7.2,7.2,0,0,0-1.8-3.2c1.4-.2,2.8,1,3.3,2.8A4,4,0,0,1,355.1,405.5Z" transform="translate(-274.4 -155.3)"/><path class="cls-2" d="M403.7,415.6a1,1,0,0,0,1.1-.4V415h0c0-.4,0-0.7-5.1-1.7,0-1.9-.1-5.6-2.3-7.1a2.6,2.6,0,0,0-1.4-.5,3,3,0,0,0-2.4,1.8l-0.3.4c-0.2-.2-0.3-0.6-0.5-2v-0.9c-0.2-1.4-.6-4.4-3.7-5.3l-1.1-.2c-2.2,0-2.8,2.1-3.2,3.3a3.2,3.2,0,0,1-.6,1.3c-0.4-.3-0.4-2.3-0.4-3.2v-0.6c0-4.1-1.9-6.4-5.2-6.4h-1a3.1,3.1,0,0,0-2.3,1.1c-1,1.2-.8,3-0.6,4.6a9.5,9.5,0,0,1,.1,1.7h-0.3c-0.5,0-1.1-.6-1.8-1.8a6.1,6.1,0,0,0-5.3-3.4,6.7,6.7,0,0,0-5.5,3.3,5.9,5.9,0,0,0,5.1,9.6h1.2c1.6,0,2.1.4,2.4,1.1l-1.4.8c-1.4.7-3,1.5-3.5,3a3.3,3.3,0,0,0,.7,2.8,6.7,6.7,0,0,0,5.4,2.9,7.4,7.4,0,0,0,4.9-2.1l0.6-.6c0.8-.8,1.9-1.8,2.6-1.8h0.3a4,4,0,0,1-.4,1.2,4.2,4.2,0,0,0-.4,3.4,3.6,3.6,0,0,0,2.3,1.8,6.3,6.3,0,0,0,2,.4,6.5,6.5,0,0,0,4.8-2.5h0.1l0.7-.8c0.7-.8,1.1-1.2,1.5-1.2h0v0.5c0.1,0.9.4,3.2,3.1,2.9s3.9-2.2,5.1-5.7Zm-9.6,3h-0.4a2.8,2.8,0,0,1-.2-0.9c-0.1-.8-0.3-2.1-1.6-2.4h-0.8c-1.5,0-2.4,1-3.3,2l-0.6.7h-0.1a4.2,4.2,0,0,1-3.1,1.7l-1.3-.2a1.7,1.7,0,0,1-.9-0.6,3,3,0,0,1,.4-1.6c0.4-1,1.1-2.8-.4-3.9a2.8,2.8,0,0,0-1.7-.6c-1.6,0-2.9,1.3-4.2,2.5l-0.6.5a5.1,5.1,0,0,1-3.3,1.5,4.5,4.5,0,0,1-3.5-2,1.3,1.3,0,0,1-.3-0.9c0.1-.5,1.4-1.1,2.2-1.5s3.4-1.6,2.7-3.5a4.5,4.5,0,0,0-4.7-2.8h-0.8a4.1,4.1,0,0,1-4.1-1.9,4,4,0,0,1,.4-4.1,4.5,4.5,0,0,1,3.6-2.3,3.8,3.8,0,0,1,3.2,2.2c0.7,1.3,1.9,3,3.8,3l1.4-.3c1.5-.6,1.3-2.4,1.1-4s-0.3-2.4.1-2.9a0.9,0.9,0,0,1,.7-0.3h0.7c0.8,0,2.8,0,2.9,4.1V401c0,1.8,0,3.7,1,4.8a2.4,2.4,0,0,0,1.9.7c1.7-.1,2.2-1.8,2.5-2.9s0.7-1.8,1.4-1.6,1.8,1.8,2,3.4v0.9c0.2,1.8.5,3.6,2.6,4h0.4a2.6,2.6,0,0,0,2.1-1.6l0.5-.7h0.2c0.5,0.3,1.3,1.4,1.3,4.7l-1.8-.3c-8.6-1.5-19.4-5.8-22.9-7.2l-1.2-.4h-0.4a0.4,0.4,0,0,0,0,.2c0.2,0.7,14.2,7.4,24.1,9.1l1.8,0.3C396.1,417.8,394.9,418.6,394.1,418.6Z" transform="translate(-274.4 -155.3)"/><path class="cls-2" d="M334.3,256.2v0.2h0.4c0.2,0,.3,0,1.4-1.2a11.8,11.8,0,0,0,5.2,1.7,4.2,4.2,0,0,0,2.1-.5,2.4,2.4,0,0,0,1.2-1.5,3.3,3.3,0,0,0-.7-2.5l-0.2-.4a4.4,4.4,0,0,1,1.8.4l1,0.3a8.8,8.8,0,0,0,2.8.6,4.4,4.4,0,0,0,3.4-1.5,3.1,3.1,0,0,0,1-2.2,4.4,4.4,0,0,0-1.8-2.9,5.2,5.2,0,0,1-.9-1h0.2a8.6,8.6,0,0,1,2.8,1.1l0.4,0.2c4,1.9,7.2.8,8.3-2.6a3.2,3.2,0,0,0,0-2.5c-0.7-1.4-2.3-2-3.7-2.5l-1.5-.6c0.1-.5.4-1.1,2.4-1.1a6,6,0,0,0,5.3-2.9,6.5,6.5,0,0,0-.4-6.5,5.9,5.9,0,0,0-11,.7c-0.9,1.9-1.5,2.3-2.2,2.3a10.5,10.5,0,0,1-.1-1.6c0-1.5,0-3.2-1-4.3a2.8,2.8,0,0,0-2.1-.8h-0.8a7,7,0,0,0-4.8,3.1,6.7,6.7,0,0,0-.5,5.5l0.3,0.9c0.5,1.6.8,2.9,0.3,3.1a3.9,3.9,0,0,1-.9-0.9,4.1,4.1,0,0,0-3-1.8,3.7,3.7,0,0,0-2.5,1.2c-2.7,2.7-1.6,5.7-1.1,7v0.2l0.3,0.8c0.5,1.2.6,1.6,0.4,2H336a4.9,4.9,0,0,0-1.6-.3,2.5,2.5,0,0,0-2.4,1.8c-0.8,2.1.2,4.5,2.9,7.2C334.1,255.8,334.3,256.1,334.3,256.2Zm-0.1-8.2a0.8,0.8,0,0,1,.2-0.3l0.8,0.2a4.3,4.3,0,0,0,1.4.3,1.8,1.8,0,0,0,1.5-.7c1.2-1.6.7-3,.1-4.5l-0.3-.8v-0.2c-0.5-1.4-1-3,.5-4.5a1.5,1.5,0,0,1,.9-0.5,2.8,2.8,0,0,1,1.2,1,3.7,3.7,0,0,0,2.6,1.7l0.9-.2c2.5-1.1,1.6-4,1.1-5.9l-0.3-.9a4.5,4.5,0,0,1,.3-3.6,4.8,4.8,0,0,1,3.3-2.1h0.8c0.4,0.4.4,1.7,0.4,2.6s0,3.8,1.9,3.9,3.9-1.7,4.8-3.6a3.6,3.6,0,0,1,6.8-.5,4.3,4.3,0,0,1,.4,4.2,3.7,3.7,0,0,1-3.3,1.7c-3.7,0-4.6,1.9-4.7,3.5s1.7,2.3,3.1,2.7,2.1,0.7,2.4,1.3a1,1,0,0,1-.1.8c-0.6,1.8-1.7,2-2.4,2a6.6,6.6,0,0,1-2.7-.7l-0.4-.2a9.5,9.5,0,0,0-3.9-1.3,2.4,2.4,0,0,0-2.3,1.4c-0.7,1.6.6,2.8,1.4,3.6a3.5,3.5,0,0,1,1,1.3,1.1,1.1,0,0,1-.4.6,2.1,2.1,0,0,1-1.7.7,6.8,6.8,0,0,1-2.1-.4l-1-.3a7.7,7.7,0,0,0-2.4-.6,2.7,2.7,0,0,0-2.2,1.1c-0.8,1-.2,2.2.2,2.8l0.4,0.7h-0.1l-0.9.2a9,9,0,0,1-3.6-1.1l3.3-3.9c5.1-6.3,13.3-13.4,16.9-16.3h0.1c1.4-1,1.4-1,1.4-1.2v-0.2l-0.2-.3h-0.2c-0.2,0-.2,0-1.6,1.1-3.1,2.2-12.6,8.9-18.1,15.6l-3.3,4.2C333.9,250,334,248.7,334.2,248Z" transform="translate(-274.4 -155.3)"/><path class="cls-2" d="M346.5,396.6h0c2.3,0,4.4-1.7,5.5-2.7a4.1,4.1,0,0,0,1.7.9,0.5,0.5,0,0,0,.5-0.2h0v-0.2c0.1-.2.1-0.4-1.2-1.7,0.8-1.3,3-5,1.6-7.5a2.3,2.3,0,0,0-2.1-1.3,4.1,4.1,0,0,0-1.9.6l-0.3.2a4,4,0,0,1,.5-1.8l0.3-.9c0.5-1.2,1.5-4.1-.7-6.2a3,3,0,0,0-2.2-1.1,4.5,4.5,0,0,0-2.9,1.6,3.6,3.6,0,0,1-1,.8c-0.2-.4.8-2.3,1.2-3l0.2-.4c1.1-2.1,1.4-4,.8-5.6a5,5,0,0,0-3.1-2.9l-1.4-.3c-2.2,0-3.1,2.2-3.7,3.9a8.9,8.9,0,0,1-.7,1.5c-0.5-.1-1-0.4-1.1-2.4a6.1,6.1,0,0,0-1.5-4.7c-1.7-1.8-4.8-2.1-7.6-.7a6.1,6.1,0,0,0-3.5,5.3,6.5,6.5,0,0,0,3.8,5.7c2,0.9,2.3,1.5,2.2,2.2h-2.9a4.2,4.2,0,0,0-3.3,1.1,3.2,3.2,0,0,0-.6,2.6c0.5,3.7,3,6,6.3,6l2.1-.3,0.9-.2a11,11,0,0,1,2.4-.5c0.6,0,.7.2,0.7,0.3a3.8,3.8,0,0,1-.9.9,4.3,4.3,0,0,0-2,2.8,3.7,3.7,0,0,0,1,2.7,5.5,5.5,0,0,0,4.1,1.9,8.6,8.6,0,0,0,2.8-.5H341l0.8-.3a5.9,5.9,0,0,1,1.6-.4h0.3l-0.2.5c-0.3.8-1.2,3,1.3,4Zm-3-7.2a7.2,7.2,0,0,0-2.4.6l-0.8.3H340a6.5,6.5,0,0,1-2,.4,3.2,3.2,0,0,1-2.4-1.1,1.7,1.7,0,0,1-.5-1,2.9,2.9,0,0,1,1.1-1.2c0.9-.7,2.3-1.8,1.6-3.5a2.8,2.8,0,0,0-2.9-1.8,12.5,12.5,0,0,0-3,.5l-0.9.2-1.5.2c-2.2,0-3.6-1.4-4-4a1.1,1.1,0,0,1,.1-0.8,2.2,2.2,0,0,1,1.5-.3h2.3c1.7,0,2.7-.6,2.8-1.8,0.5-2.8-1.6-4.1-3.5-4.9a4.2,4.2,0,0,1-2.5-3.6,3.7,3.7,0,0,1,2.3-3.3c1.9-1,3.8-.9,4.9.2a4,4,0,0,1,.9,3c0,2.8,1.2,4.4,3.4,4.7h0.2c1.5,0,2.1-1.6,2.7-3s0.9-2.4,1.6-2.4h0.5a2.8,2.8,0,0,1,1.8,1.5,4.7,4.7,0,0,1-.7,3.6l-0.2.4c-0.9,1.5-1.8,3.3-1.4,4.7a2.4,2.4,0,0,0,1.2,1.5l1,0.2a4,4,0,0,0,2.6-1.5,3.6,3.6,0,0,1,1.3-1l0.5,0.4c1.1,1.1.7,2.4,0.2,3.8l-0.3.9c-0.6,1.6-1.2,3.2.3,4.6a1.7,1.7,0,0,0,1.2.5h0a3.6,3.6,0,0,0,1.6-.5l0.7-.4v0.2c0.2,0.4.5,1.6-1.3,4.7l-3.7-3.4c-4.4-3.9-9.7-10-15.9-18.3-0.7-.9-0.7-0.9-0.9-0.9h-0.1a0.4,0.4,0,0,0-.2.3c-0.1.8,8.4,13.8,15.8,20.4l3.8,3.3a6.3,6.3,0,0,1-3.6,1.8h-0.7l-0.3-.2a3,3,0,0,1,.3-0.9c0.3-.7.8-2-0.2-2.8A3,3,0,0,0,343.4,389.4Z" transform="translate(-274.4 -155.3)"/><path class="cls-2" d="M312.6,346l1,0.2c1.2,0.2,1.6.3,1.8,0.6l-0.3.3c-0.7.6-2.4,2-.8,4.1a5.1,5.1,0,0,0,4.3,1.8,14,14,0,0,0,3.2-.4c0.8,1.8,1.1,1.8,1.3,1.8l0.3-.2h0.2c0.1-.1.2-0.4-0.3-2.1,1.5-.9,4.9-2.9,4.9-5.7a2.4,2.4,0,0,0-.6-1.8,3.3,3.3,0,0,0-2.5-.8h-0.4a3.8,3.8,0,0,1,1.4-1.4l0.7-.6c1.1-.9,3.4-2.8,2.5-5.8a2.8,2.8,0,0,0-2.8-2.3,7.8,7.8,0,0,0-2,.3l-1.2.2h-0.1c0.1-.5,1.7-1.5,2.4-1.9l0.5-.3c2-1.3,3.2-2.7,3.5-4.4a5,5,0,0,0-1.4-4.1,3,3,0,0,0-2.5-1.4c-1.4,0-2.7,1-3.8,1.9l-1.3,1c-0.4-.3-0.7-0.8.4-2.6a5.9,5.9,0,0,0,.3-5.9,6.7,6.7,0,0,0-5.8-3.2h-0.3a6,6,0,0,0-5.5,3,6.4,6.4,0,0,0,.7,6.7c1.2,1.7,1,2.5.7,3.1l-1.4-.8a7.1,7.1,0,0,0-3.5-1.5,3,3,0,0,0-2.8,2.2,6.9,6.9,0,0,0,.2,5.6,7,7,0,0,0,4.4,3.4l0.8,0.2c1.7,0.5,3,.9,2.9,1.5l-1.2.3a4.2,4.2,0,0,0-3.1,1.5,3.5,3.5,0,0,0-.3,2.9c0.8,3.8,3.9,4.4,5.3,4.6h0.2Zm-3.2-5.2a1.4,1.4,0,0,1,0-1.1,3,3,0,0,1,1.5-.5c1.1-.2,2.9-0.5,3.1-2.3s-2.6-3.4-4.6-4l-0.7-.2a4.7,4.7,0,0,1-3-2.3,4.6,4.6,0,0,1-.1-3.7c0.3-.7.6-0.7,0.7-0.7a6,6,0,0,1,2.3,1.1,5.7,5.7,0,0,0,2.8,1.2,1.9,1.9,0,0,0,1.6-.8c1.9-2.6.1-5.1-.5-6a4.1,4.1,0,0,1-.6-4.3,3.7,3.7,0,0,1,3.4-1.8h0.2a4.4,4.4,0,0,1,3.9,2,3.6,3.6,0,0,1-.3,3.7c-0.6,1-2.3,3.9.4,5.8a1.9,1.9,0,0,0,1.1.4h0a5,5,0,0,0,2.9-1.5,5.6,5.6,0,0,1,2.3-1.4,0.8,0.8,0,0,1,.6.5,2.9,2.9,0,0,1,.9,2.3c-0.1.9-1,1.9-2.4,2.7l-0.5.3c-1.5.9-3.2,2-3.5,3.5a2.4,2.4,0,0,0,2.4,2.8,7.3,7.3,0,0,0,1.8-.3l1.4-.3c0.3,0,.4,0,0.6.6s-0.6,2.4-1.8,3.4l-0.7.6c-1.3,1.1-2.7,2.2-2,4.2s1.8,1.3,2.6,1.3H326c0,0.6-.5,1.8-3.3,3.5l-1.6-4.6c-2.7-7.6-4.2-18.1-4.8-22.6-0.3-2.4-.3-2.4-0.7-2.4l-0.3.2c-0.4.5,0.4,15.6,3.9,25.5l1.8,4.7-2.2.3a3,3,0,0,1-2.5-.9l-0.2-.3a2.8,2.8,0,0,1,.6-0.6c0.6-.5,1.6-1.3,1.2-2.6s-2.2-2.1-3.7-2.4l-0.9-.2h-0.2C311.4,343.4,309.9,342.9,309.4,340.8Z" transform="translate(-274.4 -155.3)"/><path class="cls-2" d="M310.6,291.5h0.1l0.7,0.6c1,0.8,1.3,1.1,1.3,1.5h-0.5c-0.8.2-3.1,0.6-2.7,3.2s2.3,3.8,5.9,4.8c-0.1,1.4.1,1.7,0.2,1.8l0.4,0.2h0.1c0.3,0,.4,0,0.8-1.7,1.7,0,5.6-.1,7.1-2.6a2.4,2.4,0,0,0,.3-1.9,3.3,3.3,0,0,0-1.8-1.9l-0.4-.2a3.8,3.8,0,0,1,1.8-.5l0.9-.2c1.3-.2,4.3-0.8,5-3.8s-2-3.7-3.3-4.1l-1.2-.4h0c0.4-.4,2.2-0.5,3.2-0.5h0.5c2.3-.1,4.1-0.9,5.1-2.1a5.1,5.1,0,0,0,.9-4.2,3.1,3.1,0,0,0-3.4-2.8l-2.3.3-1.5.2H328c-0.2-.5-0.2-1.2,1.5-2.1a5.9,5.9,0,0,0,3.3-5,6.6,6.6,0,0,0-3.5-5.6,6,6,0,0,0-7.6.7,6.8,6.8,0,0,0-1.6,5.2c0.2,2.1-.1,2.7-0.8,3.1a10.4,10.4,0,0,1-.8-1.4c-0.8-1.5-1.8-3.3-3.7-3.3a3.4,3.4,0,0,0-2.1.9,6.8,6.8,0,0,0-2.8,4.9,6.9,6.9,0,0,0,2.3,5.2l0.7,0.7c1.2,1.1,2.1,2.1,1.7,2.6l-1.2-.3a6.3,6.3,0,0,0-2.1-.5c-1,0-2.3.5-2.9,2.6C307.1,288.6,309.5,290.6,310.6,291.5Zm-0.2-6c0.3-1,.6-1,0.7-1l1.3,0.4a5.8,5.8,0,0,0,2,.5h0a2.3,2.3,0,0,0,1.9-.9c1.7-2.2-.5-4.3-1.9-5.7l-0.6-.6a4.6,4.6,0,0,1-1.6-3.4,4.6,4.6,0,0,1,1.9-3.2,1.2,1.2,0,0,1,.7-0.3c0.5,0,1.2,1.3,1.7,2.1s1.4,2.7,2.8,2.7h0l0.7-.2c2.8-1.1,2.6-4,2.4-5.5a4.5,4.5,0,0,1,1-3.5,3.7,3.7,0,0,1,4.7-.3,4.4,4.4,0,0,1,2.4,3.6,3.6,3.6,0,0,1-2.1,3c-3.3,1.9-2.9,4.1-2.4,5.3a2.2,2.2,0,0,0,2.1,1.1l1.9-.2,1.9-.2c0.9,0,1.1.3,1.2,0.9a3,3,0,0,1-.4,2.4,4.6,4.6,0,0,1-3.4,1.3h-0.4c-1.8.1-3.8,0.1-4.8,1.3a2.4,2.4,0,0,0-.6,1.8c0.1,1.7,1.8,2.1,3,2.4s1.7,0.6,1.6,1.3-1.7,1.8-3.2,2.1l-0.9.2c-1.7.3-3.4,0.6-3.7,2.7s0.9,2,1.6,2.4l0.7,0.4h-0.1c-0.3.5-1.3,1.3-4.6,1.4l1-5.1c1.4-7.8,5.2-17.6,6.9-21.8,0.9-2.4.9-2.4,0.7-2.6h-0.2c-0.9,0-7.7,14.5-9.3,24.1-0.4,2.3-.7,4-0.9,5.2-3.1-1-3.7-2.1-3.8-2.8a0.9,0.9,0,0,1,0-.4l0.9-.3c0.8-.1,2-0.4,2.3-1.7s-0.9-3-2.1-4l-0.7-.6h-0.1C310.9,288.7,309.8,287.6,310.4,285.5Z" transform="translate(-274.4 -155.3)"/><path class="cls-2" d="M504.8,258.6h-0.1l-0.7.7a0.8,0.8,0,0,0,.4,1.4h0.4a4.7,4.7,0,0,0,1.1-1.1l0.3-.4,1.8,0.3a4.3,4.3,0,0,0,4.3-2.9,1.8,1.8,0,0,0-.5-2h-0.1l0.3-.7a6.7,6.7,0,0,0-.3-4.8,2.8,2.8,0,0,0-1-1.2,0.9,0.9,0,0,0-.6-0.7,0.9,0.9,0,0,0-.9.2c-1.6-.1-3.8,1.8-4.5,4.2l-0.2.8h-0.2a1.8,1.8,0,0,0-1.6,1.3,4,4,0,0,0,.5,3.5A5.2,5.2,0,0,0,504.8,258.6Zm1.2-6.6c0.6-2,2.4-3.3,3-3.1h0.4l0.4,0.2a1.1,1.1,0,0,1,.5.6,5.2,5.2,0,0,1,.2,3.7,5.6,5.6,0,0,1-.9,1.7h-0.2l-1.8-.3a6.1,6.1,0,0,1-1.8-.9A5.7,5.7,0,0,1,506,251.9Zm-2,2.4a7.1,7.1,0,0,0,3.1,1.9,7.8,7.8,0,0,0,2.3.4l1.3-.2A2.8,2.8,0,0,1,508,258l-1.4-.2a4.1,4.1,0,0,1-2.2-1.5A2.5,2.5,0,0,1,504,254.4Z" transform="translate(-274.4 -155.3)"/><path class="cls-2" d="M499,264.4h0.5l1.4-.7a0.8,0.8,0,1,0-.9-1.2l-0.9.5h-0.2a4.4,4.4,0,0,0-4.1-3.7,1.8,1.8,0,0,0-1.7,1v0.2h-0.8c-2.5,0-5,1.4-5.4,3a0.9,0.9,0,0,0,0,1.6,2.8,2.8,0,0,0,.8,1.4,6.7,6.7,0,0,0,4.5,1.8h0.8a0.7,0.7,0,0,0,0,.1,1.8,1.8,0,0,0,1.7,1.1h0.1C497.1,269.4,498.9,267.3,499,264.4Zm-6.9,2.2a5.2,5.2,0,0,1-3.4-1.4,1.1,1.1,0,0,1-.4-0.7,0.8,0.8,0,0,0-.1-0.4,0.8,0.8,0,0,0,.1-0.4c0-.6,1.8-1.9,3.9-1.9a5.6,5.6,0,0,1,1.9.4,6.2,6.2,0,0,1,.3,2,6.1,6.1,0,0,1-.4,2A5.7,5.7,0,0,1,492,266.6Zm2.9,1.2a7,7,0,0,0,1-3.5,7.1,7.1,0,0,0-.8-3.5c1.4,0.2,2.4,1.7,2.3,3.6S496.3,267.6,494.9,267.8Z" transform="translate(-274.4 -155.3)"/><path class="cls-2" d="M507.4,312.9a3.9,3.9,0,0,0,2.1.6,5.1,5.1,0,0,0,4.3-2.7h2a0.8,0.8,0,1,0-.2-1.5h-1.2a5.2,5.2,0,0,0,.2-2.2,4,4,0,0,0-1.9-3,2,2,0,0,0-1-.3,1.7,1.7,0,0,0-1,.3h-0.1l-0.6-.4c-2.1-1.3-5-1.3-6.1-.1a0.9,0.9,0,0,0-.8,1.4,2.8,2.8,0,0,0,0,1.6,6.7,6.7,0,0,0,3,3.8l0.7,0.4h-0.1A1.8,1.8,0,0,0,507.4,312.9Zm5.6-5.5a4.1,4.1,0,0,1-.6,2.6c-0.9,1.6-2.6,2.3-3.9,1.8a7,7,0,0,0,2.6-2.6,7.1,7.1,0,0,0,1.1-3.5A2.5,2.5,0,0,1,513,307.3Zm-8.7-1a1.1,1.1,0,0,1,0-.8,0.8,0.8,0,0,0,.1-0.4l0.3-.3c0.3-.5,2.5-0.7,4.3.3a5.7,5.7,0,0,1,1.5,1.3,6.3,6.3,0,0,1-2.1,3.5,5.7,5.7,0,0,1-1.8-.7A5.2,5.2,0,0,1,504.4,306.3Z" transform="translate(-274.4 -155.3)"/><path class="cls-2" d="M524,303.2h-0.8a1.9,1.9,0,0,0-1.3.5,4,4,0,0,0-1.3,2.8,5.1,5.1,0,0,0,.7,2.6h-0.2l-1,.3a0.8,0.8,0,0,0,.1,1.5h0.1l1.5-.4,0.4-.2A5.4,5.4,0,0,0,526,312a4,4,0,0,0,2.8-1.1,1.8,1.8,0,0,0,.5-2h-0.1l0.6-.5a6.7,6.7,0,0,0,2.1-4.4,2.8,2.8,0,0,0-.3-1.5,0.9,0.9,0,0,0-.2-0.9,0.9,0.9,0,0,0-.9-0.3c-1.4-.9-4.2-0.3-6,1.4Zm-0.7,5.9a3.9,3.9,0,0,1-1.2-2.7,2.5,2.5,0,0,1,.5-1.5,7.4,7.4,0,0,0,4.8,5.1C526.3,310.9,524.5,310.5,523.3,309.1Zm6.4-6.6,0.4,0.2,0.2,0.4a1.1,1.1,0,0,1,.2.7,5.2,5.2,0,0,1-1.6,3.3,5.6,5.6,0,0,1-1.6,1.1,6.2,6.2,0,0,1-2.8-2.9,5.7,5.7,0,0,1,1.2-1.6C527,302.4,529.2,302.1,529.6,302.6Z" transform="translate(-274.4 -155.3)"/><path class="cls-2" d="M506,352.5a1.9,1.9,0,0,0-1.6-1h-0.4l-0.4-.7c-1.2-2.2-3.7-3.5-5.3-3.1a0.9,0.9,0,0,0-.9,0,0.9,0.9,0,0,0-.5.8,2.8,2.8,0,0,0-.8,1.4,6.7,6.7,0,0,0,.8,4.8l0.4,0.6h-0.1a1.8,1.8,0,0,0-.1,2.1,4.1,4.1,0,0,0,3.7,2,5.9,5.9,0,0,0,2.9-.8l0.4,0.3,1.3,0.8h0.3a0.8,0.8,0,0,0,.3-1.5l-0.9-.5H505A4.4,4.4,0,0,0,506,352.5Zm-8.3-2.1a1.1,1.1,0,0,1,.4-0.7l0.3-.3h0.4c0.5-.3,2.6.6,3.6,2.3a5.7,5.7,0,0,1,.7,1.8,6.2,6.2,0,0,1-1.6,1.3,6,6,0,0,1-2,.7,5.7,5.7,0,0,1-1.2-1.5A5.2,5.2,0,0,1,497.7,350.4Zm5.3,7.1a4.3,4.3,0,0,1-2.1.6,2.6,2.6,0,0,1-2.1-1,7.5,7.5,0,0,0,6.1-3.5C505.5,355.1,504.5,356.6,503,357.5Z" transform="translate(-274.4 -155.3)"/><path class="cls-2" d="M523.1,358.5c-0.7-1.5-3.5-2.3-5.9-1.7l-0.7.2h-0.1a1.9,1.9,0,0,0-2-.6,4,4,0,0,0-2.7,2.3,5.2,5.2,0,0,0-.4,2.2h-0.2l-1-.3a0.8,0.8,0,0,0-.6,1.4l1.5,0.4h0.5c0.6,2.4,2.4,4,4.4,4h1a1.8,1.8,0,0,0,1.4-1.5,0.7,0.7,0,0,0,0-.2h0.8a6.7,6.7,0,0,0,4-2.8,2.8,2.8,0,0,0,.4-1.5,0.9,0.9,0,0,0,.3-0.9A0.9,0.9,0,0,0,523.1,358.5ZM513,361.8a4.1,4.1,0,0,1,.2-2.7,2.5,2.5,0,0,1,1.3-1.3,7.4,7.4,0,0,0,1.7,6.8C514.7,364.8,513.4,363.6,513,361.8Zm8.8-1.1a5.2,5.2,0,0,1-3,2.1,5.6,5.6,0,0,1-1.9.2,6.3,6.3,0,0,1-1-3.9,5.7,5.7,0,0,1,1.8-.8c2-.5,4,0.3,4.2.9l0.2,0.4a0.8,0.8,0,0,0,0,.4A1.1,1.1,0,0,1,521.7,360.7Z" transform="translate(-274.4 -155.3)"/><path class="cls-2" d="M473.2,394.8v-0.2a4.4,4.4,0,0,0,3.5-4.2,1.8,1.8,0,0,0-1.1-1.7h-0.2a7.6,7.6,0,0,0,0-.8c0-2.5-1.5-4.9-3.2-5.3a0.9,0.9,0,0,0-.8-0.5,1,1,0,0,0-.8.5,2.8,2.8,0,0,0-1.3.8,6.7,6.7,0,0,0-1.7,4.5c0,0.3,0,.5.1,0.8h-0.1a1.8,1.8,0,0,0-1.1,1.8c0,2.4,2.2,4.3,5,4.3h0.1l0.2,0.5a4.7,4.7,0,0,0,.7,1.3,0.8,0.8,0,0,0,.6.3l0.5-.2a0.8,0.8,0,0,0,.1-1.1A3.1,3.1,0,0,1,473.2,394.8Zm-2.8-10.2a1.1,1.1,0,0,1,.6-0.4h0.8c0.6,0,2,1.8,2,3.8a5.7,5.7,0,0,1-.3,1.9,6.5,6.5,0,0,1-2.1.4,6.1,6.1,0,0,1-1.9-.3,5.6,5.6,0,0,1-.4-1.9A5.2,5.2,0,0,1,470.5,384.6Zm-2.4,6.4a7.1,7.1,0,0,0,3.5.8h0a7,7,0,0,0,3.5-.9c-0.2,1.4-1.6,2.4-3.5,2.5h-0.1C470,393.3,468.3,392.5,468.1,390.9Z" transform="translate(-274.4 -155.3)"/><path class="cls-2" d="M484.1,400.2l-0.8-.2v-0.2a1.8,1.8,0,0,0-1.4-1.5h-1.1a4.5,4.5,0,0,0-3.9,2.5h-0.1l-0.7-.7a0.8,0.8,0,1,0-1.2.9,4.7,4.7,0,0,0,1.1,1.1l0.4,0.3a5.5,5.5,0,0,0,.4,4.1,4,4,0,0,0,2.4,1.9h0.6a1.8,1.8,0,0,0,1.4-.7h0.1l0.7,0.2,1.8,0.2a6.2,6.2,0,0,0,3-.7,2.8,2.8,0,0,0,1.1-1.1,0.9,0.9,0,0,0,.7-0.6,0.9,0.9,0,0,0-.3-0.9C488.5,403,486.5,400.9,484.1,400.2Zm-4.8,6.4a2.4,2.4,0,0,1-1.2-1,4,4,0,0,1-.3-3,3.4,3.4,0,0,1,3-2.8h0.3a7.2,7.2,0,0,0-1.8,3.2A7,7,0,0,0,479.3,406.6Zm7.5-1.6-0.2.4a1.1,1.1,0,0,1-.5.5,5.2,5.2,0,0,1-3.7.3,5.6,5.6,0,0,1-1.8-.8,6.1,6.1,0,0,1,.2-2,6.3,6.3,0,0,1,.8-1.9,5.7,5.7,0,0,1,1.9.2c2,0.5,3.3,2.3,3.2,2.9A0.8,0.8,0,0,0,486.8,405Z" transform="translate(-274.4 -155.3)"/><path class="cls-2" d="M465.7,396.3a6.1,6.1,0,0,0-5.3,3.4c-0.7,1.2-1.2,1.8-1.8,1.8h-0.3a9.6,9.6,0,0,1,.1-1.7c0.2-1.6.4-3.4-.6-4.6a3.1,3.1,0,0,0-2.2-1.1c-3.9-.5-6.2,1.8-6.2,6.3V401c0,0.9,0,2.8-.4,3.2a4.3,4.3,0,0,1-.5-1.3c-0.4-1.2-1-3.3-3.2-3.3l-1.1.2c-3,.9-3.5,3.8-3.7,5.3v0.9c-0.2,1.4-.3,1.8-0.5,2l-0.3-.4a3,3,0,0,0-2.4-1.8,2.6,2.6,0,0,0-1.4.5c-2.3,1.5-2.4,5.2-2.3,7.1-5.1.9-5.1,1.3-5.1,1.7h0v0.2a1,1,0,0,0,1.1.4l4.2-.4c1.2,3.6,2.9,5.5,5.1,5.7h0.4c2.3,0,2.6-2,2.7-2.9v-0.5h0c0.4,0,.8.4,1.5,1.2l0.7,0.8h0.1a6.5,6.5,0,0,0,4.8,2.5,6.3,6.3,0,0,0,2-.4,3.6,3.6,0,0,0,2.3-1.8,4.2,4.2,0,0,0-.4-3.4,4.8,4.8,0,0,1-.4-1.2h0.3c0.6,0,1.8,1.1,2.6,1.8l0.6,0.6a7.4,7.4,0,0,0,4.9,2.1,6.7,6.7,0,0,0,5.4-3,3.3,3.3,0,0,0,.7-2.8c-0.4-1.6-2-2.3-3.5-3l-1.4-.8c0.3-.7.9-1.1,2.4-1.1h0.6a6,6,0,0,0,5.7-9.6A6.7,6.7,0,0,0,465.7,396.3Zm4,8.7a3.9,3.9,0,0,1-3.6,1.9h-1.2a4.5,4.5,0,0,0-4.7,2.8c-0.7,1.9,1.3,2.8,2.7,3.5s2.1,1,2.2,1.5a1.3,1.3,0,0,1-.3.8,4.5,4.5,0,0,1-3.6,2,5.1,5.1,0,0,1-3.3-1.5l-0.6-.5c-1.3-1.2-2.6-2.5-4.2-2.5a2.8,2.8,0,0,0-1.7.6c-1.5,1.1-.8,2.9-0.4,3.9a3,3,0,0,1,.4,1.6,1.7,1.7,0,0,1-.9.6l-1.3.2a4.2,4.2,0,0,1-3.1-1.7V418l-0.6-.7c-0.9-1-1.8-2-3.3-2h-0.7c-1.3.3-1.5,1.6-1.6,2.4a2.9,2.9,0,0,1-.2.9h-0.4c-0.8-.1-2-0.8-3-3.8l1.8-.3c9.9-1.7,23.9-8.4,24.1-9.1a0.4,0.4,0,0,0,0-.2h-0.4l-1.2.4c-3.6,1.4-14.4,5.7-22.9,7.2l-1.8.3c0-3.4.8-4.4,1.3-4.7h0.1l0.5,0.7c0.5,0.7,1.1,1.8,2.5,1.5s2.3-2.3,2.6-4v-0.9c0.2-1.5.6-3,2-3.4s0.9-.2,1.4,1.6,0.8,2.8,2.5,2.9a2.3,2.3,0,0,0,1.9-.7c1.1-1.1,1.1-3.1,1-4.8v-0.6c0-4.1,2.1-4.1,2.9-4.1h0.8a0.8,0.8,0,0,1,.6.2c0.4,0.5.2,1.8,0.1,2.9s-0.4,3.4,1.1,4l1.4,0.3c1.9,0,3.1-1.7,3.8-3a3.8,3.8,0,0,1,3.3-2.2,4.5,4.5,0,0,1,3.6,2.3A4,4,0,0,1,469.7,405Z" transform="translate(-274.4 -155.3)"/><path class="cls-2" d="M506.1,375.8h-2.9c-0.1-.7.2-1.3,2.3-2.3a6.5,6.5,0,0,0,3.8-5.7,6.1,6.1,0,0,0-3.5-5.3c-2.8-1.4-5.9-1.1-7.6.7a6.1,6.1,0,0,0-1.5,4.6c0,2-.7,2.4-1.1,2.4a8.7,8.7,0,0,1-.7-1.5c-0.6-1.6-1.5-3.9-3.7-3.9l-1.4.3a5,5,0,0,0-3.1,2.9c-0.6,1.6-.3,3.4.8,5.6l0.2,0.4c0.3,0.6,1.4,2.4,1.1,3l-1-.8a4.5,4.5,0,0,0-2.9-1.6,2.9,2.9,0,0,0-2.2,1.1c-2.3,2.2-1.2,5.1-.7,6.3l0.3,0.9a4.1,4.1,0,0,1,.5,1.8l-0.3-.2a4.1,4.1,0,0,0-1.9-.6,2.3,2.3,0,0,0-2,1.3c-1.5,2.5.7,6.2,1.6,7.6-1.3,1.3-1.3,1.5-1.2,1.7v0.2h0.4a4.1,4.1,0,0,0,1.7-.9c1.1,1,3.3,2.7,5.5,2.7a4.2,4.2,0,0,0,1.5-.3c2.5-1,1.6-3.2,1.3-4l-0.2-.5h0.3a5.9,5.9,0,0,1,1.6.4l0.9,0.3h0.2a8.6,8.6,0,0,0,2.8.5,5.5,5.5,0,0,0,4.2-1.9,3.6,3.6,0,0,0,1-2.7,4.3,4.3,0,0,0-2-2.8,3.3,3.3,0,0,1-.9-0.9c0.1-.1.1-0.3,0.7-0.3a11,11,0,0,1,2.4.5l0.9,0.2,2.1,0.3c3.4,0,5.8-2.3,6.3-6a3.2,3.2,0,0,0-.6-2.6A4.2,4.2,0,0,0,506.1,375.8Zm1.6,3.4c-0.5,3.1-2.5,4.6-5.5,3.8l-0.9-.2a12.4,12.4,0,0,0-3-.5,2.8,2.8,0,0,0-2.9,1.8c-0.7,1.7.7,2.8,1.6,3.5a2.9,2.9,0,0,1,1.1,1.2,1.6,1.6,0,0,1-.5.9,3.2,3.2,0,0,1-2.4,1.1,6.5,6.5,0,0,1-2-.4H493l-0.8-.3a7.2,7.2,0,0,0-2.4-.6,3,3,0,0,0-2.1.9c-1,.9-0.5,2.1-0.2,2.9a3.5,3.5,0,0,1,.3.9l-0.3.2c-1.1.4-2.5-.2-4.3-1.7l3.8-3.3c7.4-6.6,15.9-19.6,15.8-20.4a0.4,0.4,0,0,0-.2-0.3h-0.1c-0.2,0-.2,0-0.9.9-6.2,8.2-11.5,14.4-15.9,18.3l-3.7,3.4c-1.8-3.1-1.5-4.4-1.3-4.8h0.1l0.7,0.3a3.6,3.6,0,0,0,1.6.5,1.8,1.8,0,0,0,1.2-.5c1.5-1.4.8-3,.3-4.6l-0.3-.9c-0.5-1.4-.9-2.7.2-3.8l0.5-.4a3.6,3.6,0,0,1,1.3,1,4,4,0,0,0,2.6,1.5l1-.2a2.4,2.4,0,0,0,1.2-1.5c0.4-1.5-.5-3.2-1.4-4.7l-0.2-.4a4.8,4.8,0,0,1-.7-3.7,2.8,2.8,0,0,1,1.8-1.5h0.5c0.6,0,1.2,1.3,1.6,2.4s1.2,3,2.7,3h0.2c2.1-.3,3.3-1.9,3.3-4.8a3.9,3.9,0,0,1,.9-3c1.1-1.1,3-1.2,4.9-.2a3.7,3.7,0,0,1,2.2,3.3,4.2,4.2,0,0,1-2.4,3.6c-1.9.8-4,2.2-3.5,4.9,0.2,1.2,1.1,1.8,2.9,1.8h2.3a2.2,2.2,0,0,1,1.5.3A1.1,1.1,0,0,1,507.7,379.1Z" transform="translate(-274.4 -155.3)"/><path class="cls-2" d="M527,323.8a7.1,7.1,0,0,0-3.5,1.5l-1.4.8c-0.3-.6-0.5-1.4.7-3.1a6.4,6.4,0,0,0,.7-6.7,6,6,0,0,0-5.5-3h-0.3a6.7,6.7,0,0,0-5.8,3.2,5.9,5.9,0,0,0,.3,5.9c1,1.8.8,2.3,0.4,2.6l-1.3-1c-1.1-.9-2.4-1.9-3.8-1.9a2.9,2.9,0,0,0-2.4,1.3,5.1,5.1,0,0,0-1.4,4.1c0.3,1.6,1.4,3.1,3.5,4.4l0.5,0.3c0.7,0.4,2.4,1.4,2.4,1.9H510l-1.2-.2a7.8,7.8,0,0,0-2-.3,2.8,2.8,0,0,0-2.8,2.3c-0.8,3,1.4,4.9,2.5,5.8l0.7,0.6a3.8,3.8,0,0,1,1.4,1.4h-0.4a3.3,3.3,0,0,0-2.5.8,2.4,2.4,0,0,0-.6,1.8c0.1,2.8,3.4,4.8,4.9,5.7-0.5,1.8-.4,2-0.3,2.1l0.4,0.2h0.2c0.2,0,.5,0,1.3-1.8a14.1,14.1,0,0,0,3.2.4,5.1,5.1,0,0,0,4.3-1.8c1.6-2.1-.1-3.6-0.8-4.1l-0.3-.3c0.2-.3.6-0.4,1.8-0.6l1-.2h0.2c1.3-.3,4.4-0.9,5.3-4.6a3.5,3.5,0,0,0-.3-2.9,4.2,4.2,0,0,0-3.1-1.5l-1.2-.2c-0.1-.7,1.2-1.1,2.9-1.5l0.8-.2a6.6,6.6,0,0,0,4.6-9.1A3,3,0,0,0,527,323.8Zm-16.6,30h0Zm17.2-23.3a4.7,4.7,0,0,1-3,2.3l-0.7.2c-2,.6-4.8,1.3-4.6,4s2,2.1,3.1,2.3a3,3,0,0,1,1.5.5,1.4,1.4,0,0,1,0,1.1c-0.5,2.1-2,2.6-3.5,2.9h-0.2l-0.9.2c-1.5.3-3.1,0.5-3.7,2.4s0.6,2.1,1.1,2.6l0.6,0.6-0.2.3a3,3,0,0,1-2.5.9l-2.2-.3,1.8-4.7c3.4-9.9,4.2-25,3.9-25.5l-0.3-.2c-0.4,0-.4,0-0.7,2.4-0.6,4.5-2.1,15-4.8,22.6l-1.6,4.6c-2.8-1.7-3.3-2.9-3.3-3.5h0.8c0.8,0,2.1,0,2.6-1.3s-0.7-3.1-2-4.2L508,340c-1.2-1-2.2-2-1.8-3.4s0.4-.6.6-0.6l1.4,0.3a7.3,7.3,0,0,0,1.8.3,2.4,2.4,0,0,0,2.4-2.8c-0.3-1.5-2-2.5-3.5-3.5l-0.5-.3c-1.4-.9-2.2-1.8-2.4-2.7a3,3,0,0,1,.9-2.3,0.7,0.7,0,0,1,.6-0.4,5.6,5.6,0,0,1,2.3,1.4c1,0.8,1.9,1.5,2.9,1.5a1.8,1.8,0,0,0,1.1-.3c2.7-1.9,1-4.8.4-5.8a3.6,3.6,0,0,1-.3-3.6,4.4,4.4,0,0,1,3.9-2H518a3.7,3.7,0,0,1,3.4,1.8,4.1,4.1,0,0,1-.6,4.3c-0.6.8-2.4,3.4-.5,6a1.9,1.9,0,0,0,1.5.7,5.7,5.7,0,0,0,2.8-1.2,6,6,0,0,1,2.3-1.1c0.1,0,.4,0,0.6.6A4.7,4.7,0,0,1,527.6,330.5Z" transform="translate(-274.4 -155.3)"/><path class="cls-2" d="M511.6,265.2a6,6,0,0,0-7.6-.7,6.6,6.6,0,0,0-3.5,5.6,5.9,5.9,0,0,0,3.3,5c1.7,1,1.7,1.7,1.5,2.1h-0.1l-1.5-.2-2.3-.3a3.1,3.1,0,0,0-3.4,2.8,5.1,5.1,0,0,0,.9,4.2c1,1.3,2.7,2,5.1,2.1h0.5c1,0,2.8.1,3.2,0.5h0l-1.2.4c-1.3.3-4,1-3.3,4.1s3.7,3.6,5,3.9l0.9,0.2a3.7,3.7,0,0,1,1.8.5l-0.4.2a3.3,3.3,0,0,0-1.8,1.9,2.4,2.4,0,0,0,.4,1.9c1.5,2.4,5.5,2.6,7.1,2.6,0.4,1.7.6,1.7,0.8,1.7h0.1l0.4-.2c0.1-.1.3-0.4,0.2-1.8,3.6-1.1,5.6-2.7,5.9-4.8s-1.9-3-2.7-3.2h-0.5c0-.4.3-0.7,1.3-1.5l0.7-.6h0.1c1-.9,3.5-2.9,2.4-6.6-0.6-2.2-1.9-2.6-2.9-2.6a6.3,6.3,0,0,0-2.1.5,3.3,3.3,0,0,1-1.2.3c-0.4-.5.6-1.5,1.7-2.6l0.7-.6a6.9,6.9,0,0,0,2.3-5.2,6.8,6.8,0,0,0-2.8-4.9,3.4,3.4,0,0,0-2.1-.9c-1.9,0-2.9,1.9-3.7,3.3a10.3,10.3,0,0,1-.8,1.4c-0.7-.3-1-1-0.8-3.1A6.8,6.8,0,0,0,511.6,265.2Zm1.7,10.5,0.8,0.2c1.3,0,2.1-1.4,2.8-2.7s1.2-2.1,1.7-2.1a1.2,1.2,0,0,1,.7.3,4.6,4.6,0,0,1,1.9,3.3,4.7,4.7,0,0,1-1.6,3.5l-0.6.6c-1.5,1.4-3.7,3.5-1.9,5.7a2.3,2.3,0,0,0,1.9.9,5.8,5.8,0,0,0,2-.5l1.3-.4c0.1,0,.4,0,0.7,1s-0.5,3.2-1.7,4.2H521l-0.7.6c-1.2,1-2.5,2-2.1,4s1.5,1.6,2.3,1.7l0.9,0.3a0.8,0.8,0,0,1,0,.4c-0.1.6-.7,1.8-3.8,2.8-0.2-1.3-.4-3-0.9-5.2-1.7-9.6-8.4-24.1-9.3-24.1h-0.3c-0.2.2-.2,0.2,0.7,2.6,1.6,4.2,5.5,14,6.9,21.8l1,5.1c-3.3-.1-4.3-0.9-4.6-1.4H511l0.7-.4c0.7-.4,1.8-1.1,1.6-2.4s-2.1-2.4-3.7-2.7l-0.9-.2c-1.5-.3-2.9-0.6-3.2-2.1s-0.2-.8,1.6-1.3,2.8-.7,3-2.5a2.4,2.4,0,0,0-.6-1.8c-1-1.1-3-1.2-4.8-1.3h-0.4a4.6,4.6,0,0,1-3.4-1.3,3,3,0,0,1-.4-2.4c0.1-.6.2-0.8,1.2-0.8l1.9,0.2,1.9,0.2a2.2,2.2,0,0,0,2.2-1.2c0.5-1.2.9-3.4-2.4-5.3a3.6,3.6,0,0,1-2.1-3,4.4,4.4,0,0,1,2.4-3.6,3.7,3.7,0,0,1,4.7.3,4.5,4.5,0,0,1,1,3.5C510.8,271.8,510.6,274.7,513.3,275.7Z" transform="translate(-274.4 -155.3)"/><path class="cls-2" d="M468.2,228.4a6.5,6.5,0,0,0-.4,6.5,6.1,6.1,0,0,0,5.3,2.9c2,0,2.3.6,2.4,1.1l-1.5.6c-1.4.5-3.1,1.1-3.7,2.5a3.1,3.1,0,0,0,0,2.5c1.1,3.5,4.3,4.6,8.3,2.7l0.4-.2a8.6,8.6,0,0,1,2.8-1.1H482a5.2,5.2,0,0,1-.9,1,4.4,4.4,0,0,0-1.8,2.9,3,3,0,0,0,.9,2.2,4.4,4.4,0,0,0,3.4,1.5,8.8,8.8,0,0,0,2.8-.6l1-.3a4.2,4.2,0,0,1,1.8-.4l-0.2.4a3.3,3.3,0,0,0-.7,2.5,2.4,2.4,0,0,0,1.2,1.5,4.2,4.2,0,0,0,2.1.5,11.8,11.8,0,0,0,5.2-1.7c1.1,1.2,1.3,1.2,1.4,1.2h0.4v-0.2c0.1-.2.2-0.4-0.6-1.8,2.7-2.7,3.7-5.2,2.9-7.2a2.5,2.5,0,0,0-2.4-1.8,4.9,4.9,0,0,0-1.6.3h-0.4c-0.2-.3-0.1-0.7.4-2l0.3-.8v-0.2a6,6,0,0,0-1.1-7,3.6,3.6,0,0,0-2.5-1.2,4.1,4.1,0,0,0-3,1.8,3.2,3.2,0,0,1-.9.8c-0.6-.2-0.2-1.6.3-3.1l0.3-.9a6.7,6.7,0,0,0-.5-5.5,7.1,7.1,0,0,0-4.9-3.1,3.2,3.2,0,0,0-2.9.7c-1,1.1-1,2.8-1,4.3a10.5,10.5,0,0,1-.1,1.6c-0.7,0-1.4-.4-2.2-2.2A5.9,5.9,0,0,0,468.2,228.4Zm2,1.1a3.9,3.9,0,0,1,3.3-2.2,4,4,0,0,1,3.5,2.7c0.8,1.8,2,3.6,4.3,3.6h0.4c2-.2,1.9-2.3,1.9-3.9s0-2.3.4-2.6h0.8a4.8,4.8,0,0,1,3.3,2.1,4.5,4.5,0,0,1,.2,3.7l-0.3.9c-0.6,1.9-1.5,4.9,1,5.9l1,0.2a3.7,3.7,0,0,0,2.6-1.7,2.8,2.8,0,0,1,1.2-1,1.5,1.5,0,0,1,.9.5c1.5,1.5,1.1,3.1.6,4.5v0.2l-0.3.8c-0.6,1.4-1.2,2.9.1,4.5a1.8,1.8,0,0,0,1.5.7,4.3,4.3,0,0,0,1.4-.3l0.9-.2L499,248c0.2,0.6.3,2-2.1,4.4l-3.3-4.2c-5.5-6.7-14.9-13.4-18.1-15.6-1.4-1.1-1.4-1.1-1.6-1.1h-0.2l-0.2.2v0.2c0,0.2,0,.2,1.4,1.2h0.1c3.6,2.9,11.8,10,16.9,16.3l3.3,3.9a9,9,0,0,1-3.6,1.1l-0.9-.2h-0.1l0.4-.7c0.4-.7,1.1-1.8.3-2.8a2.7,2.7,0,0,0-2.2-1.1,7.7,7.7,0,0,0-2.4.6l-1,.3a6.8,6.8,0,0,1-2.1.4,2.2,2.2,0,0,1-1.7-.8,1,1,0,0,1-.3-0.5,3.5,3.5,0,0,1,1-1.3c0.8-.8,2.1-2,1.4-3.6a2.4,2.4,0,0,0-2.3-1.4,9.5,9.5,0,0,0-3.9,1.3l-0.4.2a6.6,6.6,0,0,1-2.7.7c-0.8,0-1.8-.2-2.4-2.1a0.9,0.9,0,0,1-.1-0.7c0.3-.5,1.5-1,2.4-1.3s3.2-1.1,3.1-2.8-1-3.4-4.7-3.5a3.7,3.7,0,0,1-3.3-1.7A4.3,4.3,0,0,1,470.2,229.6Z" transform="translate(-274.4 -155.3)"/><path class="cls-2" d="M360.7,340.6l5.2-13.7h-2.9l-2.7,7.1c-0.4,1.1-.8,2.3-1.1,3.5h0c-0.3-1.3-.7-2.5-1.1-3.6l-2.7-7h-3.1l5.2,13.7h3.3Z" transform="translate(-274.4 -155.3)"/><polygon class="cls-2" points="103.2 183.1 98 183.1 98 179.4 103 179.4 103 177.3 98 177.3 98 173.9 103.2 173.9 103.2 171.7 95.1 171.7 95.1 185.4 103.2 185.4 103.2 183.1"/><polygon class="cls-2" points="113.4 185.4 113.4 174.1 117.1 174.1 117.1 171.7 106.7 171.7 106.7 174.1 110.5 174.1 110.5 185.4 113.4 185.4"/><polygon class="cls-2" points="129.3 173.9 129.3 171.7 121.2 171.7 121.2 185.4 129.3 185.4 129.3 183.1 124.1 183.1 124.1 179.4 129 179.4 129 177.3 124.1 177.3 124.1 173.9 129.3 173.9"/><path class="cls-2" d="M417.4,334.3l-4.6-7.3H409v13.7h2.8v-7.1c0-1.3,0-2.1-.1-2.9h0a21.2,21.2,0,0,0,1.4,2.6l4.7,7.4h3.8V327h-2.8v6q0,2.6.1,3.9h0A26.1,26.1,0,0,0,417.4,334.3Z" transform="translate(-274.4 -155.3)"/><path class="cls-2" d="M430,338.5a8.4,8.4,0,0,1-3-.5v2.5a13.1,13.1,0,0,0,2.8.3c3.5,0,5.9-1.8,5.9-4.6s-6.1-3.3-6.1-5.6,0.8-1.7,2.5-1.7a9.5,9.5,0,0,1,2.6.4V327l-2.6-.2c-3.6,0-5.6,1.7-5.6,4.3,0,4.4,6,3.2,6,5.6S431.3,338.5,430,338.5Z" transform="translate(-274.4 -155.3)"/><polygon class="cls-2" points="166.2 171.7 166.2 185.4 169 185.4 169 178.9 174.1 185.4 177.8 185.4 172 178.3 177.6 171.7 174.1 171.7 169 177.8 169 171.7 166.2 171.7"/><path class="cls-2" d="M458.3,338H464l1,2.7h3.2L463,327h-3.3l-5.2,13.7h2.8Zm2.2-5.9a20.7,20.7,0,0,0,.7-2.1h0l0.7,2.2,1.4,3.8H459Z" transform="translate(-274.4 -155.3)"/><path class="cls-2" d="M476.7,326.9h-4.5v13.7H475v-4.5h1.2c3.5,0,5.9-1.9,5.9-4.9S480.1,326.9,476.7,326.9Zm-0.4,7H475v-4.6h1.4c1.8,0,2.7,1,2.7,2.3S478,333.9,476.2,333.9Z" transform="translate(-274.4 -155.3)"/><path class="cls-2" d="M360.7,363.7a6.9,6.9,0,0,0,7.2-7.2c0-4.6-2.8-6.9-6.7-6.9a6.9,6.9,0,0,0-7.1,7.2C354.1,360.8,356.3,363.7,360.7,363.7ZM361,352c2.3,0,3.9,1.6,3.9,4.6s-1.8,4.5-4,4.5-3.8-2-3.8-4.6S358.9,352,361,352Z" transform="translate(-274.4 -155.3)"/><path class="cls-2" d="M377.9,363.6a11,11,0,0,0,3.7-.6l-0.2-2.5a6.8,6.8,0,0,1-2.9.6c-2.7,0-4.3-1.6-4.3-4.5s1.4-4.7,4.1-4.7a9.3,9.3,0,0,1,2.9.5l0.3-2.5a11.4,11.4,0,0,0-2.9-.4c-5.1,0-7.4,3.4-7.4,7.3S373.4,363.6,377.9,363.6Z" transform="translate(-274.4 -155.3)"/><polygon class="cls-2" points="123.8 208.2 123.8 194.5 121 194.5 121 199.9 114.5 199.9 114.5 194.5 111.7 194.5 111.7 208.2 114.5 208.2 114.5 202.4 121 202.4 121 208.2 123.8 208.2"/><polygon class="cls-2" points="138.8 201.7 143.9 208.2 147.6 208.2 141.7 201.1 147.3 194.5 143.8 194.5 138.8 200.6 138.8 194.5 136 194.5 136 208.2 138.8 208.2 138.8 201.7"/><path class="cls-2" d="M430.5,363.7a6.9,6.9,0,0,0,7.2-7.2c0-4.6-2.8-6.9-6.7-6.9a6.9,6.9,0,0,0-7.1,7.2C423.9,360.8,426.1,363.7,430.5,363.7Zm0.3-11.7c2.3,0,3.9,1.6,3.9,4.6s-1.8,4.5-4,4.5-3.8-2-3.8-4.6S428.7,352,430.8,352Z" transform="translate(-274.4 -155.3)"/><path class="cls-2" d="M446,356l4.7,7.4h3.8V349.8h-2.8v6q0,2.6.1,3.9h0a26.1,26.1,0,0,0-1.5-2.7l-4.6-7.3h-3.8v13.7h2.8v-7.1c0-1.3,0-2.1-.1-2.9h0A21,21,0,0,0,446,356Z" transform="translate(-274.4 -155.3)"/><path class="cls-2" d="M462.7,361.3a8.4,8.4,0,0,1-3-.5v2.5a13.1,13.1,0,0,0,2.8.3c3.5,0,5.9-1.8,5.9-4.6,0-4.3-6.1-3.3-6.1-5.6s0.8-1.7,2.5-1.7a9.5,9.5,0,0,1,2.6.4v-2.4l-2.6-.2c-3.6,0-5.6,1.7-5.6,4.3,0,4.4,6,3.2,6,5.6S464,361.3,462.7,361.3Z" transform="translate(-274.4 -155.3)"/><polygon class="cls-2" points="203.4 208.2 203.4 196.9 207.2 196.9 207.2 194.5 196.7 194.5 196.7 196.9 200.5 196.9 200.5 208.2 203.4 208.2"/><path class="cls-2" d="M371.8,311.1h-0.3c-7.2-.9-7.2-2.3-7.4-8.3V292.4l12,13c4.6,5,7.1,7.8,13.7,7.8l4.2-.3h0.3v-1.6H394c-4-.2-6.2-2.4-10.5-6.9l-1.9-2-11.7-13,4.7-4.8,1-1.1c4-4.2,8.4-8.9,14.4-9.5h0.3v-1.6H374.5V274h0.3c1.6,0.2,2.4.5,2.6,1.2s-0.9,3.5-4.2,7.2l-9.2,9.8v-9.9c0.2-6,.2-7.4,5.8-8.3h0.3v-1.6H351V274h0.3c6.7,0.9,6.7,2.3,6.9,8.3v20.4c-0.2,6-.2,7.4-6.9,8.3H351v1.6h20.8v-1.6Z" transform="translate(-274.4 -155.3)"/><path class="cls-2" d="M424.3,311.1H424c-7.5-.9-7.8-2.6-7.8-9.7V274.9h3.1c6.9,0,9.7,2.1,11.5,8.8V284l1.5-.3-0.7-11.4H394.8l-0.7,11.4,1.5,0.3v-0.3c1.9-6.6,4.7-8.8,11.5-8.8h3.1v26.5c0,7.1-.3,8.8-7.8,9.7h-0.3v1.6h22.1v-1.6Z" transform="translate(-274.4 -155.3)"/><path class="cls-2" d="M483.5,274h0.3v-1.6H463V274h0.3c7.4,1.1,7.4,2,7.4,8.3v8h-21v-8c0-6.2,0-7.2,7.4-8.3h0.3v-1.6H436.7V274H437c6.7,0.9,6.7,2.3,6.9,8.3v20.4c-0.2,6-.2,7.4-6.9,8.3h-0.3v1.6h20.8v-1.6h-0.3c-7.4-1.1-7.4-2-7.4-8.3v-9.2h21v9.2c0,6.2,0,7.2-7.4,8.3H463v1.6h20.8v-1.6h-0.3c-6.7-.9-6.7-2.3-6.9-8.3V282.3C476.8,276.3,476.9,274.9,483.5,274Z" transform="translate(-274.4 -155.3)"/><path class="cls-2" d="M368.5,219.7a4.5,4.5,0,0,0,.3,4.4,4.3,4.3,0,0,0,4.2,1.9c1.8,2.2,4.7,4.9,7.2,4.2a95.3,95.3,0,0,1,36.5-7.1h0a95.3,95.3,0,0,1,36.5,7.1c2.4,0.7,5.4-2,7.2-4.2a4.3,4.3,0,0,0,4.2-1.9,4.5,4.5,0,0,0,.3-4.4,22.1,22.1,0,0,1,3.2-3.9,4.5,4.5,0,0,0-3.1-7.9h-0.6v-0.4a3.8,3.8,0,1,0-3.7-6.7l-0.3-.4a3.1,3.1,0,0,0,1-2.2,3.1,3.1,0,0,0-5.7-1.8l-0.5-.4a2.9,2.9,0,1,0-5-2.7l-0.9-.4a2.5,2.5,0,0,0,.4-1.3,2.6,2.6,0,0,0-5.1-.4l-0.6-.2a3.6,3.6,0,0,0-3.5-2.6l-1.1.2-0.4-.3v-0.2a3.1,3.1,0,0,0-3.1-3.1,3,3,0,0,0-1.8.6h-0.3a2.8,2.8,0,0,0-5.2-1.3h-0.6a2.5,2.5,0,0,0-5-.5h-0.7a5.9,5.9,0,0,0-2.7-7.6,7,7,0,0,0-1.7-.6v-4.5h2.6a2.3,2.3,0,0,0,0-2.1h-2.6V166a1.8,1.8,0,0,0-1.1-.3h0a1.8,1.8,0,0,0-1.1.3v2.5H413a2.3,2.3,0,0,0,0,2.1h2.5v4.5a7,7,0,0,0-1.7.6,5.9,5.9,0,0,0-2.7,7.6h-0.7a2.5,2.5,0,0,0-5,.5h-0.6a2.8,2.8,0,0,0-5.2,1.3h-0.3a3,3,0,0,0-1.8-.6,3.1,3.1,0,0,0-3.1,3.1v0.2l-0.4.3-1.1-.2a3.6,3.6,0,0,0-3.5,2.6l-0.6.2a2.6,2.6,0,0,0-5.1.4,2.5,2.5,0,0,0,.4,1.3l-0.9.4a2.9,2.9,0,1,0-5,2.7l-0.5.4a3.1,3.1,0,1,0-4.8,4l-0.3.4a3.8,3.8,0,1,0-3.7,6.7v0.4h-0.6a4.5,4.5,0,0,0-3.1,7.9A22.1,22.1,0,0,1,368.5,219.7Zm3.9,4.7a2.8,2.8,0,1,1,2.8-2.8A2.8,2.8,0,0,1,372.4,224.4Zm44.2-9.2a2.8,2.8,0,1,1,2.8-2.8A2.8,2.8,0,0,1,416.6,215.2Zm0-21.7a2.8,2.8,0,1,1-2.8,2.8A2.8,2.8,0,0,1,416.6,193.6Zm-2.2-3.1a2.2,2.2,0,1,1,2.2,2.2A2.2,2.2,0,0,1,414.5,190.5Zm2.1,9.7a3.4,3.4,0,0,1,2.6,5.7,4.3,4.3,0,0,0-5.1,0A3.4,3.4,0,0,1,416.6,200.2Zm44.2,24.2a2.8,2.8,0,1,1,2.8-2.8A2.8,2.8,0,0,1,460.9,224.4Zm4.1-15a3,3,0,0,1,3,3,4.2,4.2,0,0,1-2,3,4.3,4.3,0,0,0-3.3-1.5h-0.3a3,3,0,0,1-.4-1.5A3,3,0,0,1,464.9,209.4Zm-2.4-7.5a2.3,2.3,0,1,1-2.3,2.3A2.3,2.3,0,0,1,462.5,201.9Zm-4.4-5.2a1.6,1.6,0,1,1-1.6,1.6A1.6,1.6,0,0,1,458.1,196.7Zm-5.4-3.6a1.3,1.3,0,1,1-1.3,1.3A1.3,1.3,0,0,1,452.6,193.1Zm-5.8-2.4a1,1,0,1,1-1,1A1,1,0,0,1,446.8,190.7Zm-3.4,3.1c8.8,2.8,13.3,7,15.4,11.3s1.4,4.8,1.5,7.3a6.6,6.6,0,0,0,.4,1.9,4.1,4.1,0,0,0-2.3,2.7l-0.2-.2a4.2,4.2,0,0,0-2.7-1,4.3,4.3,0,1,0,1.7,8.2L458,225a4.4,4.4,0,0,1-5.5,2.1,6.9,6.9,0,0,1-4.1-4.5,6.9,6.9,0,0,1-5.9,1.6A4.4,4.4,0,0,1,439,219l0.3-1.4a4.2,4.2,0,1,0,5-4.9h-0.8l0.2-.4a4.2,4.2,0,0,0,0-1.5,4.9,4.9,0,0,0,1.1-9,4.1,4.1,0,0,0-1.7-7.6Zm-3.1,13.4h-1a3.3,3.3,0,1,1,3.9,2.1A4.2,4.2,0,0,0,440.3,207.3Zm5-9a2.5,2.5,0,1,1-2.5-2.5A2.5,2.5,0,0,1,445.4,198.3Zm-5.1-8.2a2.1,2.1,0,1,1-2.1,2.1A2.1,2.1,0,0,1,440.2,190.1Zm-1.4,21.7a2.8,2.8,0,1,1-2.8,2.8A2.8,2.8,0,0,1,438.9,211.8Zm-3.1-25.1a1.5,1.5,0,1,1-1.5,1.5A1.5,1.5,0,0,1,435.7,186.7Zm-4.9-2.4a1.2,1.2,0,1,1-1.2,1.2A1.2,1.2,0,0,1,430.9,184.3Zm-5.5-1.3a1,1,0,1,1-1,1A1,1,0,0,1,425.3,183Zm11,24,0.6,1.1a4.2,4.2,0,0,0-1.5,2.5v0.4l-0.7-.3a4.2,4.2,0,1,0,2.7,6.4l-0.2,1.4a4.4,4.4,0,0,1-5.1,3.4,6.6,6.6,0,0,1-4.7-3.7,6.7,6.7,0,0,1-5.4,2.8,4.4,4.4,0,0,1-4.4-4.4c0-.2,0-1.1.1-1.4a4.2,4.2,0,1,0,3.9-5.8h-0.8v-0.4a4.3,4.3,0,0,0-.2-1.2l1.5-1s-0.3-14.3-2.8-20.7h0.3C440.6,187.4,438.8,201.9,436.3,207ZM421,180.7V181a4.3,4.3,0,0,1-.7,2.3h-1.4a2.3,2.3,0,0,0-1.1-2.6H421Zm-3.3-3.9a4.5,4.5,0,0,1,2.9,2.3h-2.9v-2.3Zm-1.1,5a1,1,0,1,1-1,1A1,1,0,0,1,416.6,181.8Zm0,2.9a1.5,1.5,0,1,1-1.5,1.5A1.5,1.5,0,0,1,416.6,184.6Zm-1.1-7.8v2.3h-2.9A4.4,4.4,0,0,1,415.6,176.8Zm-3.3,3.9h3.2a2.3,2.3,0,0,0-1.1,2.6h-1.4a4.3,4.3,0,0,1-.7-2.3v-0.3ZM408,183a1,1,0,1,1-1,1A1,1,0,0,1,408,183Zm-5.5,1.3a1.2,1.2,0,1,1-1.2,1.2A1.2,1.2,0,0,1,402.4,184.3Zm-4.9,2.4a1.5,1.5,0,1,1-1.5,1.5A1.5,1.5,0,0,1,397.5,186.7Zm16.1-.5h0.3c-2.6,6.4-2.8,20.7-2.8,20.7l1.5,1a4.3,4.3,0,0,0-.2,1.2v0.4h-0.8a4.2,4.2,0,1,0,3.9,5.8c0,0.3.1,1.2,0.1,1.4a4.4,4.4,0,0,1-4.4,4.4,6.7,6.7,0,0,1-5.4-2.8,6.6,6.6,0,0,1-4.7,3.7,4.4,4.4,0,0,1-5.1-3.4l-0.2-1.4a4.2,4.2,0,1,0,2.7-6.4l-0.7.3c0-.2,0-0.4,0-0.4a4.2,4.2,0,0,0-1.5-2.5L397,207C394.5,201.9,392.7,187.4,413.6,186.2Zm-16.4,28.4a2.8,2.8,0,1,1-2.8-2.8A2.8,2.8,0,0,1,397.2,214.6Zm-7.1-5.3a3.4,3.4,0,1,1,3.9-2.1h-1A4.2,4.2,0,0,0,390.1,209.3Zm2.9-19.2a2.1,2.1,0,1,1-2.1,2.1A2.1,2.1,0,0,1,393,190.1Zm-2.6,5.6a2.5,2.5,0,1,1-2.5,2.5A2.5,2.5,0,0,1,390.4,195.7Zm-4-5a1,1,0,1,1-1,1A1,1,0,0,1,386.4,190.7Zm-5.8,2.4a1.3,1.3,0,1,1-1.3,1.3A1.3,1.3,0,0,1,380.6,193.1Zm9.2,0.8,0.2,0.4a4.1,4.1,0,0,0-1.7,7.6,4.9,4.9,0,0,0,1.1,9,4.2,4.2,0,0,0,0,1.5l0.2,0.4h-0.8a4.2,4.2,0,1,0,5,4.9l0.3,1.4a4.4,4.4,0,0,1-3.4,5.1,6.9,6.9,0,0,1-5.9-1.6,6.9,6.9,0,0,1-4.1,4.5,4.4,4.4,0,0,1-5.5-2.1l0.7-.8a4.3,4.3,0,1,0,1.7-8.2,4.2,4.2,0,0,0-2.7,1l-0.2.2a4.1,4.1,0,0,0-2.3-2.7,6.6,6.6,0,0,0,.4-1.9c0.1-2.5-.2-3.4,1.5-7.3S381.1,196.7,389.8,193.9Zm-14.6,2.8a1.6,1.6,0,1,1-1.6,1.6A1.6,1.6,0,0,1,375.2,196.7Zm-6.7,7.5a2.3,2.3,0,1,1,2.3,2.3A2.3,2.3,0,0,1,368.5,204.2Zm-0.2,5.3a3,3,0,0,1,3,3,3,3,0,0,1-.4,1.5h-0.3a4.3,4.3,0,0,0-3.3,1.5,4.2,4.2,0,0,1-2-3A3,3,0,0,1,368.3,209.4Z" transform="translate(-274.4 -155.3)"/><path class="cls-2" d="M447.6,242a1,1,0,0,0,.3-1.9,88.8,88.8,0,0,0-31-5.5h-0.7a88.8,88.8,0,0,0-30.9,5.5,1,1,0,0,0,.7,1.9,86.8,86.8,0,0,1,30.3-5.4H417a86.8,86.8,0,0,1,30.3,5.4h0.3Z" transform="translate(-274.4 -155.3)"/><path class="cls-2" d="M453.5,236.2l-1.4-3.8-0.2-.6-1.8.3a92.7,92.7,0,0,0-31.7-6.1l-1.7-1-1.7,1a92.7,92.7,0,0,0-31.7,6.1l-1.8-.3-0.2.6-1.4,3.8,4.1,2.3,1.3-1.6a89,89,0,0,1,29.3-5.6l2.1,1.2,2.1-1.2a89,89,0,0,1,29.3,5.6l1.3,1.6Zm-70,.4-1.9-1.1,0.8-2,3.3,0.5Zm17.4-4.9-3.3.7a1.7,1.7,0,1,1-.7-3.3l3.3-.7A1.7,1.7,0,1,1,400.9,231.7Zm15.7-.9-3.5-2,3.5-2,3.5,2Zm21,0.3a1.7,1.7,0,0,1-2,1.3l-3.3-.7a1.7,1.7,0,1,1,.7-3.3l3.3,0.7A1.7,1.7,0,0,1,437.7,231Zm10,3,3.3-.5,0.8,2-1.9,1.1Z" transform="translate(-274.4 -155.3)"/></svg>